<svg width="48" height="48" viewBox="0 0 48 48" fill="none" xmlns="http://www.w3.org/2000/svg">
  <!-- Brain outline with circuit-like connections -->
  <path d="M16 12 Q12 8, 8 12 Q6 16, 8 20 Q6 24, 8 28 Q10 32, 14 34 Q18 36, 22 34 Q26 36, 30 34 Q34 32, 36 28 Q38 24, 36 20 Q40 16, 36 12 Q32 8, 28 12 Q24 10, 20 12 Q18 10, 16 12 Z" 
        stroke="#FC4C02" 
        stroke-width="2" 
        fill="rgba(252, 76, 2, 0.1)"/>
  
  <!-- Neural connections representing intelligence -->
  <circle cx="14" cy="18" r="1.5" fill="#FC4C02"/>
  <circle cx="22" cy="16" r="1.5" fill="#FC4C02" opacity="0.8"/>
  <circle cx="30" cy="20" r="1.5" fill="#FC4C02" opacity="0.6"/>
  <circle cx="18" cy="26" r="1.5" fill="#FC4C02" opacity="0.7"/>
  <circle cx="28" cy="28" r="1.5" fill="#FC4C02" opacity="0.5"/>
  
  <!-- Connecting lines (neural pathways) -->
  <line x1="14" y1="18" x2="22" y2="16" stroke="#FC4C02" stroke-width="1" opacity="0.4"/>
  <line x1="22" y1="16" x2="30" y2="20" stroke="#FC4C02" stroke-width="1" opacity="0.4"/>
  <line x1="18" y1="26" x2="28" y2="28" stroke="#FC4C02" stroke-width="1" opacity="0.4"/>
  <line x1="14" y1="18" x2="18" y2="26" stroke="#FC4C02" stroke-width="1" opacity="0.4"/>
  
  <!-- Data output representation -->
  <rect x="32" y="38" width="12" height="2" fill="#FC4C02" opacity="0.6" rx="1"/>
  <rect x="34" y="42" width="8" height="1.5" fill="#FC4C02" opacity="0.4" rx="0.75"/>
  <text x="40" y="46" font-family="monospace" font-size="4" fill="#FC4C02" text-anchor="middle" opacity="0.6">8x400m</text>
</svg>